<svg width="512" height="512" viewBox="0 0 512 512" fill="none" xmlns="http://www.w3.org/2000/svg">
  <rect width="512" height="512" rx="128" fill="#F59E0B"/>
  <path d="M256 128C211.817 128 176 163.817 176 208V240H144C130.745 240 120 250.745 120 264V368C120 381.255 130.745 392 144 392H368C381.255 392 392 381.255 392 368V264C392 250.745 381.255 240 368 240H336V208C336 163.817 300.183 128 256 128ZM304 240H208V208C208 177.072 233.072 152 264 152H248C279.928 152 304 177.072 304 208V240Z" fill="white"/>
  <circle cx="256" cy="320" r="24" fill="white"/>
  <rect x="244" y="320" width="24" height="48" rx="4" fill="white"/>
</svg>
